<svg preserveAspectRatio="none" width="100%" height="100%" overflow="visible" style="display: block;" viewBox="0 0 48 48" fill="none" xmlns="http://www.w3.org/2000/svg">
<g id="Edit">
<circle id="Circle bg" cx="24" cy="24" r="24" fill="var(--fill-0, white)" fill-opacity="0.2"/>
<g id="IconTools/Icon_Frame">
<path id="&#240;&#159;&#142;&#168;icon_fill -------hack" d="M31.9159 30.6657C32.146 30.6657 32.3329 30.8526 32.3329 31.0827V31.9157C32.3329 32.1459 32.1461 32.3327 31.9159 32.3327H19.7616C20.6428 31.8532 21.4787 31.2949 22.2587 30.6657H31.9159ZM28.1191 15.8786C28.4162 15.7273 28.7673 15.7273 29.0644 15.8786C29.2172 15.9565 29.3442 16.0842 29.4228 16.1638L31.0019 17.7429C31.0814 17.8214 31.2101 17.9484 31.288 18.1013C31.4392 18.3982 31.4391 18.7497 31.288 19.0466C31.2101 19.1995 31.0814 19.3265 31.0019 19.405L22.9404 27.4665C22.2554 28.1515 21.8894 28.5176 21.4999 28.8562C20.7207 29.5336 19.8726 30.1278 18.9697 30.6286C18.5183 30.879 18.0487 31.0978 17.1708 31.5075C17.0962 31.5424 17.0152 31.5849 16.9306 31.6296C16.6457 31.78 16.3151 31.9548 16.0156 31.9392C15.5896 31.9169 15.2487 31.5761 15.2265 31.1501C15.2108 30.8505 15.3857 30.52 15.5361 30.2351C15.5807 30.1504 15.6233 30.0695 15.6581 29.9948C16.0677 29.1172 16.2868 28.6482 16.537 28.197C17.0379 27.2939 17.6319 26.4451 18.3095 25.6657C18.6482 25.2762 19.015 24.9105 19.7001 24.2253L27.7372 16.1872C27.7445 16.18 27.7523 16.1722 27.7607 16.1638C27.8392 16.0842 27.9662 15.9565 28.1191 15.8786Z" fill="var(--fill-0, white)"/>
</g>
</g>
</svg>
