<svg preserveAspectRatio="none" width="100%" height="100%" overflow="visible" style="display: block;" viewBox="0 0 22.4049 22.7179" fill="none" xmlns="http://www.w3.org/2000/svg">
<path id="Tint" d="M9.81055 0.015185C10.2105 -0.0553148 10.6135 0.123758 10.8301 0.467333L11.2598 1.148C11.4411 1.43565 11.7564 1.60847 12.0957 1.63042C12.8174 1.6769 13.518 1.80157 14.1885 1.99663C14.5149 2.09162 14.8709 2.03789 15.1396 1.82964L15.7734 1.33745C16.0944 1.08876 16.534 1.0594 16.8857 1.26226L17.4883 1.60991C17.8398 1.81306 18.0334 2.20856 17.9785 2.61089L17.8701 3.40874C17.8242 3.74547 17.9547 4.07999 18.2002 4.31499C18.7127 4.80551 19.1723 5.35126 19.5684 5.94292C19.7573 6.22513 20.0639 6.41213 20.4033 6.42534L21.2051 6.45659C21.611 6.47239 21.9675 6.73213 22.1064 7.11382L22.3438 7.76616C22.4827 8.14785 22.3769 8.57617 22.0762 8.84917L21.4824 9.38823C21.2309 9.61651 21.1157 9.95682 21.1523 10.2945C21.1903 10.6442 21.21 11.0001 21.21 11.3599C21.2099 11.7196 21.1903 12.0748 21.1523 12.4244C21.1157 12.7621 21.2309 13.1023 21.4824 13.3306L22.0771 13.8707C22.3776 14.1436 22.4834 14.5712 22.3447 14.9527L22.1064 15.606C21.9675 15.9876 21.6118 16.2474 21.2061 16.2632L20.4023 16.2945C20.063 16.3078 19.7563 16.4947 19.5674 16.7769C19.1715 17.3682 18.7124 17.9136 18.2002 18.4039C17.9548 18.6388 17.8243 18.9734 17.8701 19.3101L17.9785 20.107C18.0334 20.5093 17.8399 20.9048 17.4883 21.108L16.8867 21.4556C16.535 21.6587 16.0945 21.6292 15.7734 21.3804L15.1406 20.8892C14.8718 20.6809 14.516 20.6272 14.1895 20.7222C13.5186 20.9175 12.8179 21.0429 12.0957 21.0894C11.7562 21.1112 11.4402 21.2831 11.2588 21.5708L10.8301 22.2515C10.6135 22.595 10.2105 22.7731 9.81055 22.7027L9.12598 22.5826C8.72597 22.512 8.40831 22.2061 8.32227 21.8091L8.15234 21.025C8.08036 20.6928 7.84314 20.4228 7.53223 20.2857C6.8791 19.9979 6.26294 19.6408 5.69434 19.2232C5.42011 19.0218 5.06718 18.9504 4.74316 19.0542L3.97461 19.3003C3.58789 19.4241 3.16434 19.3018 2.90332 18.9908L2.45703 18.4585C2.19607 18.1475 2.14888 17.7095 2.33789 17.3501L2.71387 16.6373C2.87239 16.3362 2.86349 15.9765 2.71289 15.6714C2.40211 15.0422 2.15726 14.3743 1.9873 13.6773C1.90668 13.3466 1.68223 13.0649 1.36719 12.9361L0.621094 12.6314C0.245137 12.4777 0 12.1118 0 11.7056V11.0113C0 10.6052 0.245222 10.2392 0.621094 10.0855L1.36719 9.77983C1.68221 9.65109 1.90656 9.37019 1.9873 9.0396C2.15732 8.34303 2.40221 7.67534 2.71289 7.04643C2.86355 6.74133 2.87241 6.3817 2.71387 6.08061L2.33789 5.36675C2.14864 5.00735 2.19594 4.56852 2.45703 4.25737L2.90332 3.72515C3.16441 3.41407 3.58785 3.29163 3.97461 3.41558L4.74609 3.66265C5.06996 3.76644 5.42211 3.69589 5.69629 3.49468C6.26437 3.07767 6.87982 2.72067 7.53223 2.43315C7.84314 2.29602 8.08036 2.02601 8.15234 1.6939L8.32227 0.90874C8.40835 0.511964 8.72616 0.206891 9.12598 0.136279L9.81055 0.015185ZM11.46 3.80913C7.29021 3.80913 3.91016 7.19016 3.91016 11.3599C3.91037 15.5295 7.29034 18.9097 11.46 18.9097C15.6296 18.9097 19.0096 15.5295 19.0098 11.3599C19.0098 7.19017 15.6297 3.80915 11.46 3.80913Z" fill="var(--fill-0, #F6F6F6)"/>
</svg>
