<svg preserveAspectRatio="none" width="100%" height="100%" overflow="visible" style="display: block;" viewBox="0 0 18.501 20.3997" fill="none" xmlns="http://www.w3.org/2000/svg">
<path id="Tint" d="M17.9365 0.00421852C18.2356 -0.0345329 18.501 0.198638 18.501 0.500312L18.5 15.3997C18.4999 17.3327 16.933 18.8997 15 18.8997C13.067 18.8997 11.5001 17.3327 11.5 15.3997C11.5 13.4667 13.067 11.8997 15 11.8997H16.8008V3.11848L7.00098 4.39387L7 16.8997C6.99993 18.8327 5.43295 20.3997 3.5 20.3997C1.56705 20.3997 7.15107e-05 18.8327 0 16.8997C0 14.9667 1.567 13.3997 3.5 13.3997H5.30078V2.09113C5.30101 1.84019 5.48745 1.62848 5.73633 1.59602L17.9365 0.00421852Z" fill="var(--fill-0, #F6F6F6)"/>
</svg>
