<svg preserveAspectRatio="none" width="100%" height="100%" overflow="visible" style="display: block;" viewBox="0 0 48 48" fill="none" xmlns="http://www.w3.org/2000/svg">
<g id="Edit">
<circle id="Circle bg" cx="24" cy="24" r="24" fill="var(--fill-0, white)" fill-opacity="0.2"/>
<g id="IconTools/Icon_Frame">
<path id="&#240;&#159;&#142;&#168;icon_fill -------hack" d="M31.9159 30.6665C32.146 30.6665 32.3328 30.8525 32.3329 31.0825V31.9165C32.3327 32.1464 32.1459 32.3325 31.9159 32.3325H19.7616C20.6427 31.853 21.4787 31.2956 22.2587 30.6665H31.9159ZM28.1191 15.8784C28.4161 15.7271 28.7673 15.7271 29.0644 15.8784C29.2172 15.9563 29.3442 16.084 29.4228 16.1635C29.4312 16.1721 29.4389 16.1807 29.4462 16.188L30.9784 17.7192C30.9856 17.7264 30.9935 17.7344 31.0019 17.7426V17.7436C31.0814 17.8222 31.2102 17.9483 31.288 18.101C31.4394 18.3981 31.4394 18.7502 31.288 19.0473C31.2101 19.2001 31.0814 19.3262 31.0019 19.4048L22.9404 27.4663C22.2554 28.1512 21.8894 28.5173 21.4999 28.8559C20.7207 29.5334 19.8726 30.1275 18.9697 30.6284C18.5183 30.8787 18.0487 31.0976 17.1708 31.5073C17.0962 31.5421 17.0152 31.5847 16.9306 31.6294C16.6457 31.7798 16.3151 31.9546 16.0155 31.9389C15.5896 31.9166 15.2497 31.5759 15.2275 31.1499C15.2119 30.8504 15.3857 30.5206 15.5361 30.2358C15.5807 30.1512 15.6233 30.0702 15.6581 29.9956C16.0678 29.1176 16.2867 28.6481 16.537 28.1967C17.0379 27.2936 17.6319 26.4449 18.3095 25.6655C18.6481 25.276 19.015 24.9102 19.7001 24.2251L27.7372 16.188C27.7445 16.1807 27.7523 16.1721 27.7607 16.1635C27.8392 16.084 27.9662 15.9563 28.1191 15.8784Z" fill="var(--fill-0, white)"/>
</g>
</g>
</svg>
