<svg preserveAspectRatio="none" width="100%" height="100%" overflow="visible" style="display: block;" viewBox="0 0 22.4059 22.7179" fill="none" xmlns="http://www.w3.org/2000/svg">
<path id="Tint" d="M9.81152 0.015185C10.2115 -0.0553148 10.6144 0.123758 10.8311 0.467333L11.2607 1.148C11.4421 1.43565 11.7574 1.60847 12.0967 1.63042C12.8184 1.6769 13.519 1.80157 14.1895 1.99663C14.5159 2.09162 14.8719 2.03789 15.1406 1.82964L15.7744 1.33745C16.0954 1.08876 16.535 1.0594 16.8867 1.26226L17.4893 1.60991C17.8408 1.81306 18.0344 2.20856 17.9795 2.61089L17.8711 3.40874C17.8252 3.74547 17.9557 4.07999 18.2012 4.31499C18.7137 4.80551 19.1733 5.35126 19.5693 5.94292C19.7583 6.22513 20.0649 6.41213 20.4043 6.42534L21.2061 6.45659C21.6119 6.47239 21.9685 6.73213 22.1074 7.11382L22.3447 7.76616C22.4836 8.14785 22.3779 8.57617 22.0771 8.84917L21.4834 9.38823C21.2319 9.61651 21.1167 9.95682 21.1533 10.2945C21.1913 10.6442 21.2109 11.0001 21.2109 11.3599C21.2109 11.7196 21.1913 12.0748 21.1533 12.4244C21.1166 12.7621 21.2319 13.1023 21.4834 13.3306L22.0781 13.8707C22.3786 14.1436 22.4844 14.5712 22.3457 14.9527L22.1074 15.606C21.9685 15.9876 21.6128 16.2474 21.207 16.2632L20.4033 16.2945C20.064 16.3078 19.7573 16.4947 19.5684 16.7769C19.1725 17.3682 18.7134 17.9136 18.2012 18.4039C17.9557 18.6388 17.8252 18.9734 17.8711 19.3101L17.9795 20.107C18.0344 20.5093 17.8408 20.9048 17.4893 21.108L16.8877 21.4556C16.5359 21.6587 16.0955 21.6292 15.7744 21.3804L15.1416 20.8892C14.8728 20.6809 14.5169 20.6272 14.1904 20.7222C13.5196 20.9175 12.8188 21.0429 12.0967 21.0894C11.7572 21.1112 11.4412 21.2831 11.2598 21.5708L10.8311 22.2515C10.6145 22.595 10.2114 22.7731 9.81152 22.7027L9.12695 22.5826C8.72694 22.512 8.40928 22.2061 8.32324 21.8091L8.15332 21.025C8.08134 20.6928 7.84412 20.4228 7.5332 20.2857C6.88008 19.9979 6.26392 19.6408 5.69531 19.2232C5.42109 19.0218 5.06815 18.9504 4.74414 19.0542L3.97559 19.3003C3.58887 19.4241 3.16532 19.3018 2.9043 18.9908L2.45801 18.4585C2.19705 18.1475 2.14986 17.7095 2.33887 17.3501L2.71484 16.6373C2.87337 16.3362 2.86446 15.9765 2.71387 15.6714C2.40308 15.0422 2.15824 14.3743 1.98828 13.6773C1.90766 13.3466 1.68321 13.0649 1.36816 12.9361L0.62207 12.6314C0.246114 12.4777 0 12.1118 0 11.7056V11.0113C0 10.6052 0.246199 10.2392 0.62207 10.0855L1.36816 9.77983C1.68318 9.65109 1.90754 9.37019 1.98828 9.0396C2.1583 8.34303 2.40318 7.67534 2.71387 7.04643C2.86453 6.74133 2.87339 6.3817 2.71484 6.08061L2.33887 5.36675C2.14962 5.00735 2.19692 4.56852 2.45801 4.25737L2.9043 3.72515C3.16539 3.41407 3.58883 3.29163 3.97559 3.41558L4.74707 3.66265C5.07094 3.76644 5.42309 3.69589 5.69727 3.49468C6.26535 3.07767 6.8808 2.72067 7.5332 2.43315C7.84411 2.29602 8.08134 2.02601 8.15332 1.6939L8.32324 0.90874C8.40933 0.511964 8.72714 0.206891 9.12695 0.136279L9.81152 0.015185ZM11.4609 3.80913C7.29119 3.80913 3.91113 7.19016 3.91113 11.3599C3.91135 15.5295 7.29132 18.9097 11.4609 18.9097C15.6305 18.9097 19.0105 15.5295 19.0107 11.3599C19.0107 7.19017 15.6307 3.80915 11.4609 3.80913Z" fill="var(--fill-0, #F6F6F6)"/>
</svg>
