<svg preserveAspectRatio="none" width="100%" height="100%" overflow="visible" style="display: block;" viewBox="0 0 18.501 20.3997" fill="none" xmlns="http://www.w3.org/2000/svg">
<path id="Tint" d="M17.9365 0.00422245C18.2356 -0.034549 18.501 0.198632 18.501 0.500316L18.5 15.3997C18.4998 17.3326 16.9329 18.8997 15 18.8997C13.0671 18.8997 11.5002 17.3326 11.5 15.3997C11.5 13.4667 13.067 11.8997 15 11.8997H16.8008V3.11848L7.00098 4.39387L7 16.8997C6.9998 18.8326 5.43287 20.3997 3.5 20.3997C1.56713 20.3997 0.000202474 18.8326 0 16.8997C0 14.9667 1.567 13.3997 3.5 13.3997H5.30078V2.09114C5.30089 1.84009 5.48737 1.62849 5.73633 1.59602L17.9365 0.00422245Z" fill="var(--fill-0, #F6F6F6)"/>
</svg>
