<svg preserveAspectRatio="none" width="100%" height="100%" overflow="visible" style="display: block;" viewBox="0 0 40 40" fill="none" xmlns="http://www.w3.org/2000/svg">
<g id="IconTools/Icon_Frame">
<path id="&#240;&#159;&#142;&#168;icon_fill -------hack" d="M18.8213 13.8213C19.4721 13.1705 20.5278 13.1705 21.1787 13.8213L32.2558 24.8984C32.5812 25.2238 32.5811 25.7517 32.2558 26.0771L31.0771 27.2559C30.7517 27.5813 30.2239 27.5813 29.8984 27.2559L21.666 19.0234V37.5C21.666 37.9602 21.2932 38.333 20.833 38.333H19.166C18.706 38.3328 18.333 37.9601 18.333 37.5V19.0234L10.1006 27.2559C9.77519 27.5811 9.24824 27.5811 8.92283 27.2559L7.74412 26.0771C7.41868 25.7517 7.41868 25.2239 7.74412 24.8984L18.8213 13.8213ZM7.62498 6.44727C7.9504 6.12184 8.47825 6.12188 8.80369 6.44727L13.5176 11.1611C13.843 11.4866 13.843 12.0144 13.5176 12.3398L12.3398 13.5186C12.0145 13.8439 11.4866 13.8437 11.1611 13.5186L6.44724 8.80371C6.12185 8.47827 6.12182 7.9514 6.44724 7.62598L7.62498 6.44727ZM31.1953 6.44727C31.5207 6.12183 32.0486 6.12183 32.374 6.44727L33.5527 7.62598C33.8779 7.95134 33.8778 8.47832 33.5527 8.80371L28.8388 13.5186C28.5135 13.8439 27.9856 13.8438 27.6601 13.5186L26.4814 12.3398C26.156 12.0144 26.156 11.4866 26.4814 11.1611L31.1953 6.44727ZM20.833 1.66699C21.2932 1.66699 21.666 2.03976 21.666 2.5V9.16699C21.6658 9.62708 21.2931 10 20.833 10H19.166C18.7061 9.99976 18.3332 9.62693 18.333 9.16699V2.5C18.333 2.03991 18.706 1.66723 19.166 1.66699H20.833Z" fill="var(--fill-0, black)"/>
</g>
</svg>
