<svg preserveAspectRatio="none" width="100%" height="100%" overflow="visible" style="display: block;" viewBox="0 0 21 20" fill="none" xmlns="http://www.w3.org/2000/svg">
<path id="Union" d="M6 0C5.72386 0 5.5 0.223858 5.5 0.5V2H4.8C3.11984 2 2.27976 2 1.63803 2.32698C1.07354 2.6146 0.614601 3.07354 0.32698 3.63803C0 4.27976 0 5.11984 0 6.8V15.2C0 16.8802 0 17.7202 0.32698 18.362C0.614601 18.9265 1.07354 19.3854 1.63803 19.673C2.27976 20 3.11984 20 4.8 20H16.2C17.8802 20 18.7202 20 19.362 19.673C19.9265 19.3854 20.3854 18.9265 20.673 18.362C21 17.7202 21 16.8802 21 15.2V6.8C21 5.11984 21 4.27976 20.673 3.63803C20.3854 3.07354 19.9265 2.6146 19.362 2.32698C18.7202 2 17.8802 2 16.2 2H15.5V0.5C15.5 0.223858 15.2761 0 15 0H14C13.7239 0 13.5 0.223858 13.5 0.5V2H7.5V0.5C7.5 0.223858 7.27614 0 7 0H6ZM4.8 4H5.5V5.5C5.5 5.77614 5.72386 6 6 6H7C7.27614 6 7.5 5.77614 7.5 5.5V4H13.5V5.5C13.5 5.77614 13.7239 6 14 6H15C15.2761 6 15.5 5.77614 15.5 5.5V4H16.2C17.0731 4 17.6076 4.00156 18.0075 4.03423C18.1938 4.04945 18.3065 4.06857 18.375 4.08469C18.4076 4.09236 18.4276 4.09879 18.4384 4.10265C18.4488 4.10636 18.454 4.10899 18.454 4.10899C18.6422 4.20487 18.7951 4.35785 18.891 4.54601C18.891 4.54601 18.8936 4.55118 18.8973 4.56158C18.9012 4.57241 18.9076 4.59244 18.9153 4.625C18.9314 4.69345 18.9505 4.80617 18.9658 4.99247C18.9984 5.39239 19 5.92692 19 6.8V7.75H2V6.8C2 5.92692 2.00156 5.39239 2.03423 4.99247C2.04945 4.80617 2.06857 4.69345 2.08469 4.625C2.09236 4.59244 2.09879 4.57241 2.10265 4.56158C2.10636 4.55118 2.10899 4.54601 2.10899 4.54601C2.20487 4.35785 2.35785 4.20487 2.54601 4.10899C2.54601 4.10899 2.55118 4.10636 2.56158 4.10265C2.57241 4.09879 2.59244 4.09236 2.625 4.08469C2.69345 4.06857 2.80617 4.04945 2.99247 4.03423C3.39239 4.00156 3.92692 4 4.8 4ZM2 9.75H19V15.2C19 16.0731 18.9984 16.6076 18.9658 17.0075C18.9505 17.1938 18.9314 17.3065 18.9153 17.375C18.9076 17.4076 18.9012 17.4276 18.8973 17.4384C18.8936 17.4488 18.891 17.454 18.891 17.454C18.7951 17.6422 18.6422 17.7951 18.454 17.891C18.454 17.891 18.4488 17.8936 18.4384 17.8973C18.4276 17.9012 18.4076 17.9076 18.375 17.9153C18.3065 17.9314 18.1938 17.9505 18.0075 17.9658C17.6076 17.9984 17.0731 18 16.2 18H4.8C3.92692 18 3.39239 17.9984 2.99247 17.9658C2.80617 17.9505 2.69345 17.9314 2.625 17.9153C2.59244 17.9076 2.57241 17.9012 2.56158 17.8973C2.55118 17.8936 2.54601 17.891 2.54601 17.891C2.35785 17.7951 2.20487 17.6422 2.10899 17.454C2.10899 17.454 2.10636 17.4488 2.10265 17.4384C2.09879 17.4276 2.09236 17.4076 2.08469 17.375C2.06857 17.3065 2.04945 17.1938 2.03423 17.0075C2.00156 16.6076 2 16.0731 2 15.2V9.75Z" fill="var(--fill-0, white)"/>
</svg>
