<svg preserveAspectRatio="none" width="100%" height="100%" overflow="visible" style="display: block;" viewBox="0 0 24 24" fill="none" xmlns="http://www.w3.org/2000/svg">
<g id="Icon Frame - 24pt">
<path id="&#240;&#159;&#142;&#168;icon_fill -------hack" d="M17.4395 5.14663C17.6348 4.95142 17.9513 4.95138 18.1466 5.14663L18.8536 5.85366C19.0487 6.04891 19.0488 6.36546 18.8536 6.56069L13.4141 12.0001L18.8536 17.4396C19.0487 17.6349 19.0488 17.9514 18.8536 18.1466L18.1466 18.8537C17.9514 19.0489 17.6348 19.0487 17.4395 18.8537L12.0001 13.4142L6.56062 18.8537C6.3654 19.0489 6.04886 19.0488 5.85359 18.8537L5.14656 18.1466C4.95131 17.9514 4.95132 17.6349 5.14656 17.4396L10.586 12.0001L5.14656 6.56069C4.9513 6.36543 4.9513 6.04892 5.14656 5.85366L5.85359 5.14663C6.04885 4.95136 6.36536 4.95136 6.56062 5.14663L12.0001 10.5861L17.4395 5.14663Z" fill="var(--fill-0, white)"/>
</g>
</svg>
