<svg preserveAspectRatio="none" width="100%" height="100%" overflow="visible" style="display: block;" viewBox="0 0 26 26" fill="none" xmlns="http://www.w3.org/2000/svg">
<g id="Frame 2036081117">
<g id="Ellipse 226">
<circle cx="13" cy="13" r="11.5" fill="var(--fill-0, #14CDF6)"/>
<circle cx="13" cy="13" r="11.5" stroke="var(--stroke-0, white)" stroke-width="3"/>
<circle cx="13" cy="13" r="11.5" stroke="var(--stroke-1, white)" stroke-width="3"/>
</g>
<path id="plus_tiny_fill" d="M12.1857 18.1623C12.2748 18.2077 12.3915 18.2077 12.6248 18.2077H13.3748C13.6082 18.2077 13.7249 18.2077 13.814 18.1623C13.8924 18.1223 13.9561 18.0586 13.9961 17.9802C14.0415 17.891 14.0415 17.7744 14.0415 17.541V14.041H17.5415C17.7749 14.041 17.8915 14.041 17.9807 13.9956C18.0591 13.9557 18.1228 13.8919 18.1628 13.8135C18.2082 13.7244 18.2082 13.6077 18.2082 13.3743V12.6243C18.2082 12.391 18.2082 12.2743 18.1628 12.1852C18.1228 12.1068 18.0591 12.043 17.9807 12.0031C17.8915 11.9577 17.7749 11.9577 17.5415 11.9577H14.0415V8.45768C14.0415 8.22433 14.0415 8.10765 13.9961 8.01852C13.9561 7.94012 13.8924 7.87638 13.814 7.83643C13.7249 7.79102 13.6082 7.79102 13.3748 7.79102H12.6248C12.3915 7.79102 12.2748 7.79102 12.1857 7.83643C12.1073 7.87638 12.0435 7.94012 12.0036 8.01852C11.9582 8.10765 11.9582 8.22433 11.9582 8.45768V11.9577H8.45817C8.22482 11.9577 8.10814 11.9577 8.01901 12.0031C7.94061 12.043 7.87687 12.1068 7.83692 12.1852C7.7915 12.2743 7.7915 12.391 7.7915 12.6243V13.3743C7.7915 13.6077 7.7915 13.7244 7.83692 13.8135C7.87687 13.8919 7.94061 13.9557 8.01901 13.9956C8.10814 14.041 8.22482 14.041 8.45817 14.041H11.9582V17.541C11.9582 17.7744 11.9582 17.891 12.0036 17.9802C12.0435 18.0586 12.1073 18.1223 12.1857 18.1623Z" fill="var(--fill-0, white)"/>
</g>
</svg>
