<svg preserveAspectRatio="none" width="100%" height="100%" overflow="visible" style="display: block;" viewBox="0 0 16.4436 16.4436" fill="none" xmlns="http://www.w3.org/2000/svg">
<g id="arrow_topright_circle">
<path d="M10.2108 7.33836L6.20158 11.3476C6.05563 11.4935 5.81901 11.4935 5.67306 11.3476L5.14455 10.8191C4.9986 10.6731 4.9986 10.4365 5.14455 10.2905L9.15376 6.28133H6.04678C5.84038 6.28133 5.67306 6.11401 5.67306 5.90761L5.67306 5.16018C5.67306 4.95378 5.84038 4.78646 6.04678 4.78646L10.9582 4.78646C11.371 4.78646 11.7057 5.1211 11.7057 5.53389L11.7057 10.4453C11.7057 10.6517 11.5383 10.8191 11.332 10.8191H10.5845C10.3781 10.8191 10.2108 10.6517 10.2108 10.4453L10.2108 7.33836Z" fill="var(--fill-0, black)"/>
<path d="M0 8.2218C0 3.68102 3.68102 0 8.2218 0C12.7626 0 16.4436 3.68102 16.4436 8.2218C16.4436 12.7626 12.7626 16.4436 8.2218 16.4436C3.68102 16.4436 0 12.7626 0 8.2218ZM8.2218 1.49487C4.50662 1.49487 1.49487 4.50662 1.49487 8.2218C1.49487 11.937 4.50662 14.9487 8.2218 14.9487C11.937 14.9487 14.9487 11.937 14.9487 8.2218C14.9487 4.50662 11.937 1.49487 8.2218 1.49487Z" fill="var(--fill-0, black)"/>
</g>
</svg>
